<?xml version="1.0" encoding="UTF-8"?>
<svg width="100%" height="100%" version="1.1" viewBox="0 0 416.99 416.99"
	xmlns="http://www.w3.org/2000/svg">

	
		<path d="m344.65 204.32c-7.807 3.62-16.314 5.501-25.067 5.503-10.392 1e-3 -20.665-2.759-29.711-7.982-16.886-9.749-27.772-27.175-29.52-46.218-19.143-1.749-36.518-12.726-46.216-29.523-9.747-16.882-10.465-37.41-2.462-54.773-12.251-8.607-20.792-21.491-23.926-36.143-41.698 1.338-79.982 16.399-110.5 40.79 7.997 7.752 12.731 18.522 12.731 30.139 0 14.868-7.772 27.946-19.461 35.412-6.518 4.163-14.248 6.588-22.539 6.588-5.841 0-11.538-1.211-16.78-3.498-0.026 0.027-0.052 0.053-0.078 0.08-1.962 5.439-3.673 10.997-5.136 16.655-3.896 15.073-5.982 30.869-5.982 47.146 0 103.94 84.559 188.5 188.5 188.5 41.112 0 79.18-13.243 110.19-35.67 0.654-0.587 1.493-1.204 2.467-1.842 11.615-8.688 22.217-18.658 31.549-29.74-10.812-7.738-17.66-20.402-17.66-34.193 0-9.15 2.95-17.619 7.937-24.526 7.339-10.164 19.105-16.916 32.449-17.425 0.523-0.029 1.057-0.049 1.615-0.049 0.404 0 0.807 0.014 1.21 0.026 1.405-8.275 2.272-16.73 2.548-25.333-14.655-3.131-27.542-11.67-36.153-23.92zm-212.21 130.55c-13.093 0-24.803-6.025-32.512-15.445-6.215-7.325-9.976-16.795-9.976-27.131 0-23.159 18.841-42 42-42 13.093 0 24.804 6.025 32.512 15.445 6.215 7.325 9.976 16.795 9.976 27.131 0 23.159-18.84 42-42 42zm27.759-151.18c-13.093 0-24.803-6.025-32.512-15.445-6.215-7.325-9.976-16.795-9.976-27.131 0-23.159 18.841-42 42-42 13.093 0 24.803 6.025 32.512 15.445 6.215 7.325 9.976 16.795 9.976 27.131 0 23.158-18.84 42-42 42zm86.769 131.15c-16.814 0-31.855-7.727-41.767-19.815-7.929-9.401-12.721-21.53-12.721-34.762 0-29.776 24.225-54 54-54 16.814 0 31.855 7.727 41.767 19.815 7.929 9.401 12.721 21.53 12.721 34.762 0 29.776-24.225 54-54 54z" fill="#D4B783"/>
		<path d="m159.71 163.11c12.131 0 22-9.869 22-22s-9.869-22-22-22-22 9.869-22 22 9.87 22 22 22z" fill="#89634A"/>
		<path d="m131.95 314.3c12.131 0 22-9.869 22-22s-9.869-22-22-22-22 9.869-22 22 9.869 22 22 22z" fill="#89634A"/>
		<path d="m69.977 106.11c0-6.503-2.838-12.494-7.563-16.596-9.154 11.218-17.041 23.505-23.448 36.643 2.809 1.265 5.866 1.954 9.011 1.954 12.131-1e-3 22-9.87 22-22.001z" fill="#89634A"/>
		<path d="m355.04 295.55c0 7.423 3.79 14.218 9.724 18.234 8.124-12.02 14.894-25.024 20.101-38.79-2.469-0.943-5.101-1.444-7.825-1.444-12.13 0-22 9.869-22 22z" fill="#89634A"/>
		<path d="m246.48 294.26c18.748 0 34-15.253 34-34 0-18.748-15.252-34-34-34s-34 15.252-34 34c0 18.747 15.252 34 34 34z" fill="#89634A"/>
	
	
		<path d="m192.22 114.56c5.926 7.242 9.488 16.489 9.488 26.555 0 23.159-18.841 42-42 42-12.822 0-24.314-5.782-32.024-14.869 7.708 9.42 19.419 15.445 32.512 15.445 23.159 0 42-18.841 42-42 0-10.336-3.76-19.806-9.976-27.131z" fill="#89634A"/>
		<path d="m173.95 292.3c0 23.159-18.841 42-42 42-12.822 0-24.314-5.782-32.024-14.869 7.709 9.42 19.419 15.445 32.512 15.445 23.159 0 42-18.841 42-42 0-10.337-3.761-19.806-9.976-27.131 5.925 7.242 9.488 16.489 9.488 26.555z" fill="#89634A"/>
		<path d="m300.48 260.26c0 29.776-24.225 54-54 54-16.543 0-31.365-7.485-41.279-19.238 9.911 12.087 24.952 19.815 41.767 19.815 29.775 0 54-24.224 54-54 0-13.232-4.792-25.361-12.721-34.762 7.64 9.317 12.233 21.223 12.233 34.185z" fill="#89634A"/>
		<path d="m159.71 183.11c23.159 0 42-18.841 42-42 0-10.066-3.562-19.313-9.488-26.555-7.708-9.42-19.418-15.445-32.512-15.445-23.159 0-42 18.841-42 42 0 10.337 3.761 19.806 9.976 27.131 7.711 9.087 19.202 14.869 32.024 14.869zm0-64c12.131 0 22 9.869 22 22s-9.869 22-22 22-22-9.869-22-22 9.87-22 22-22z"/>
		<path d="m131.95 334.3c23.159 0 42-18.841 42-42 0-10.066-3.562-19.313-9.488-26.555-7.708-9.42-19.419-15.445-32.512-15.445-23.159 0-42 18.841-42 42 0 10.337 3.761 19.806 9.976 27.131 7.71 9.087 19.201 14.869 32.024 14.869zm0-64c12.131 0 22 9.869 22 22s-9.869 22-22 22-22-9.869-22-22 9.869-22 22-22z"/>
		<path d="m416.97 206.6-0.013-0.831c-0.064-5.279-4.222-9.598-9.494-9.864-14.875-0.751-28.007-9.639-34.27-23.193-1.245-2.694-3.623-4.696-6.489-5.465-2.867-0.769-5.927-0.224-8.353 1.487-6.706 4.73-14.927 7.335-23.146 7.336-6.964 0-13.857-1.854-19.935-5.363-13.458-7.77-21.242-22.803-19.83-38.299 0.269-2.956-0.789-5.879-2.888-7.977-2.1-2.1-5.033-3.154-7.977-2.889-1.195 0.109-2.411 0.164-3.614 0.164-14.272 0-27.562-7.662-34.683-19.996-7.77-13.458-6.994-30.369 1.976-43.084 1.711-2.425 2.257-5.485 1.488-8.352-0.768-2.867-2.77-5.245-5.464-6.49-13.548-6.262-22.434-19.387-23.189-34.254-0.268-5.269-4.583-9.424-9.858-9.492l-0.816-0.013c-0.638-0.011-1.278-0.021-1.919-0.021-114.96 0-208.5 93.531-208.5 208.5s93.53 208.5 208.5 208.5 208.5-93.531 208.5-208.5c0-0.635-0.01-1.267-0.021-1.9zm-354.56-117.08c4.725 4.102 7.563 10.093 7.563 16.596 0 12.131-9.869 22-22 22-3.145 0-6.202-0.689-9.011-1.954 6.407-13.137 14.294-25.424 23.448-36.642zm302.35 224.27c-5.935-4.016-9.724-10.811-9.724-18.234 0-12.131 9.869-22 22-22 2.725 0 5.356 0.501 7.825 1.444-5.207 13.766-11.977 26.77-20.101 38.79zm26.18-57.855c-4.067-1.428-8.354-2.227-12.695-2.354-0.403-0.012-0.806-0.026-1.21-0.026-0.542 0-1.077 0.029-1.615 0.049-13.344 0.509-25.11 7.26-32.449 17.425-4.987 6.906-7.937 15.376-7.937 24.526 0 13.791 6.848 26.454 17.66 34.193-9.332 11.082-19.935 21.052-31.549 29.74-0.822 0.615-1.635 1.24-2.467 1.842-31.012 22.428-69.08 35.67-110.19 35.67-103.94 0-188.49-84.558-188.49-188.5 0-16.276 2.085-32.073 5.983-47.148 1.463-5.657 3.174-11.215 5.136-16.655 0.012-0.032 0.022-0.065 0.034-0.098 0.014 6e-3 0.029 0.011 0.044 0.018 5.242 2.287 10.938 3.498 16.78 3.498 8.291 0 16.021-2.425 22.539-6.588 11.688-7.466 19.461-20.544 19.461-35.412 0-11.617-4.733-22.387-12.731-30.139-0.451-0.437-0.906-0.869-1.377-1.286 32.732-32.446 77.26-53.009 126.5-54.589 3.157 14.763 11.764 27.746 24.107 36.418-8.064 17.495-7.341 38.179 2.48 55.19 9.771 16.925 27.278 27.985 46.567 29.748 1.761 19.188 12.729 36.747 29.744 46.57 9.114 5.262 19.466 8.043 29.936 8.042 8.82-1e-3 17.392-1.897 25.258-5.544 8.676 12.343 21.661 20.947 36.427 24.102-0.454 14.217-2.492 28.042-5.942 41.303z"/>
		<path d="m246.48 314.26c29.775 0 54-24.224 54-54 0-12.961-4.593-24.868-12.233-34.185-9.911-12.087-24.952-19.815-41.767-19.815-29.775 0-54 24.224-54 54 0 13.232 4.792 25.361 12.721 34.762 9.914 11.753 24.736 19.238 41.279 19.238zm0-88c18.748 0 34 15.252 34 34 0 18.747-15.252 34-34 34s-34-15.253-34-34c0-18.748 15.252-34 34-34z"/>
	

</svg>